<svg width="25" height="40" viewBox="0 0 25 40" fill="none" xmlns="http://www.w3.org/2000/svg">
<path d="M5.16906 11.496C5.15311 6.14406 8.5592 3.18407 14.821 3.16007C19.3358 3.14407 20.1335 6.10406 20.1415 7.17606C20.1495 9.24005 17.2379 11.424 17.2379 11.424C17.2379 11.424 17.3975 12.704 19.8942 12.696C22.3909 12.688 24.8159 11.032 24.7999 6.90406C24.784 2.15208 19.8304 -0.015912 14.9247 8.78921e-05C10.8326 0.0160878 -0.0397745 0.592085 0.000109439 11.416C0.0320166 21.032 18.1154 21.88 18.1393 28.04C18.1632 34.7279 10.681 36.5279 8.16036 36.5359C5.63969 36.5439 4.60271 34.7279 4.59474 33.7359C4.57878 28.32 9.94715 26.816 9.94715 26.816C9.94715 26.416 9.63606 24.616 7.55412 24.616C2.19372 24.632 0.0639237 29.256 0.0798772 33.7759C0.0958308 37.6159 2.79996 40.0159 6.88407 39.9999C14.6933 39.9679 23.4997 36.1519 23.4678 27.656C23.4359 19.712 5.19299 17.632 5.16906 11.496Z" fill="#F7FAFC"/>
</svg>
