<svg width="18" height="18" viewBox="0 0 18 18" fill="none" xmlns="http://www.w3.org/2000/svg">
<rect width="18" height="18" rx="9" fill="#F0B90B"/>
<path d="M9.00011 10.3826L10.3823 8.99987L8.9996 7.61762L7.61736 8.99987L9.00011 10.3826ZM9.00011 12.3561L6.63085 9.98791L5.24862 11.3691L8.9996 15.1201L12.7511 11.3691L11.3689 9.98791L9.00011 12.3561ZM13.7386 7.61764L12.3564 8.99987L13.7386 10.3826L15.1199 8.99987L13.7386 7.61764ZM8.9996 5.64359L11.3689 8.01336L12.7511 6.63112L8.9996 2.88013L5.24913 6.63113L6.63137 8.01336L9.00062 5.64359H8.9996ZM5.64588 8.99987L4.26213 10.3826L2.87988 8.99987L4.26212 7.61762L5.64588 8.99987Z" fill="white"/>
</svg>
