<svg width="18" height="18" viewBox="0 0 18 18" fill="none" xmlns="http://www.w3.org/2000/svg">
<rect width="18" height="18" rx="9" fill="#0052FF"/>
<path fill-rule="evenodd" clip-rule="evenodd" d="M8.99988 2.88013C12.3799 2.88013 15.1199 5.62014 15.1199 9.00013C15.1199 12.3801 12.3799 15.1201 8.99988 15.1201C5.6199 15.1201 2.87988 12.3801 2.87988 9.00013C2.87988 5.62014 5.6199 2.88013 8.99988 2.88013ZM6.85008 9.00013C6.85008 10.1889 7.81291 11.1517 9.00165 11.1517C10.0667 11.1517 10.9488 10.3753 11.1191 9.35872H13.2886C13.1058 11.5677 11.2572 13.3033 9.00165 13.3033C6.62596 13.3033 4.69852 11.3758 4.69852 9.00013C4.69852 6.62444 6.62596 4.697 9.00165 4.697C11.2572 4.697 13.1058 6.4326 13.2886 8.64153H11.1209C10.9506 7.62492 10.0667 6.84856 9.00165 6.84856C7.81291 6.84856 6.85008 7.81139 6.85008 9.00013Z" fill="white"/>
</svg>
