<svg width="18" height="18" viewBox="0 0 18 18" fill="none" xmlns="http://www.w3.org/2000/svg">
<rect width="18" height="18" rx="9" fill="#141418"/>
<path d="M14.5149 3.6001L9.7334 6.9751L10.6226 4.9861L14.5149 3.6001Z" fill="#E17726" stroke="#E17726" stroke-width="0.1875" stroke-linecap="round" stroke-linejoin="round"/>
<path d="M3.48535 3.6001L8.22438 7.0066L7.37779 4.9861L3.48535 3.6001Z" fill="#E27625" stroke="#E27625" stroke-width="0.1875" stroke-linecap="round" stroke-linejoin="round"/>
<path d="M12.7928 11.4255L11.5205 13.2795L14.2447 13.995L15.0251 11.4661L12.7928 11.4255Z" fill="#E27625" stroke="#E27625" stroke-width="0.1875" stroke-linecap="round" stroke-linejoin="round"/>
<path d="M2.97949 11.4661L3.75514 13.995L6.47465 13.2795L5.20712 11.4255L2.97949 11.4661Z" fill="#E27625" stroke="#E27625" stroke-width="0.1875" stroke-linecap="round" stroke-linejoin="round"/>
<path d="M6.32752 8.29366L5.5708 9.3827L8.26665 9.49966L8.1768 6.73218L6.32752 8.29366Z" fill="#E27625" stroke="#E27625" stroke-width="0.1875" stroke-linecap="round" stroke-linejoin="round"/>
<path d="M11.672 8.29367L9.7944 6.70068L9.73291 9.49967L12.4288 9.3827L11.672 8.29367Z" fill="#E27625" stroke="#E27625" stroke-width="0.1875" stroke-linecap="round" stroke-linejoin="round"/>
<path d="M6.47412 13.2796L8.1058 12.5282L6.70115 11.4841L6.47412 13.2796Z" fill="#E27625" stroke="#E27625" stroke-width="0.1875" stroke-linecap="round" stroke-linejoin="round"/>
<path d="M9.89404 12.5282L11.521 13.2796L11.2987 11.4841L9.89404 12.5282Z" fill="#E27625" stroke="#E27625" stroke-width="0.1875" stroke-linecap="round" stroke-linejoin="round"/>
<path d="M11.521 13.2796L9.89404 12.5281L10.0264 13.5361L10.0123 13.9636L11.521 13.2796Z" fill="#D5BFB2" stroke="#D5BFB2" stroke-width="0.1875" stroke-linecap="round" stroke-linejoin="round"/>
<path d="M6.47412 13.2796L7.98759 13.9636L7.97812 13.5361L8.1058 12.5281L6.47412 13.2796Z" fill="#D5BFB2" stroke="#D5BFB2" stroke-width="0.1875" stroke-linecap="round" stroke-linejoin="round"/>
<path d="M8.01624 10.818L6.66357 10.44L7.61894 10.0215L8.01624 10.818Z" fill="#233447" stroke="#233447" stroke-width="0.1875" stroke-linecap="round" stroke-linejoin="round"/>
<path d="M9.98389 10.818L10.3812 10.0215L11.3413 10.44L9.98389 10.818Z" fill="#233447" stroke="#233447" stroke-width="0.1875" stroke-linecap="round" stroke-linejoin="round"/>
<path d="M6.47454 13.2795L6.71103 11.4255L5.20703 11.4661L6.47454 13.2795Z" fill="#CC6228" stroke="#CC6228" stroke-width="0.1875" stroke-linecap="round" stroke-linejoin="round"/>
<path d="M11.2891 11.4255L11.5208 13.2795L12.7931 11.4661L11.2891 11.4255Z" fill="#CC6228" stroke="#CC6228" stroke-width="0.1875" stroke-linecap="round" stroke-linejoin="round"/>
<path d="M12.4288 9.38257L9.73291 9.49954L9.9836 10.8181L10.3809 10.0216L11.341 10.4401L12.4288 9.38257Z" fill="#CC6228" stroke="#CC6228" stroke-width="0.1875" stroke-linecap="round" stroke-linejoin="round"/>
<path d="M6.66333 10.4401L7.6187 10.0216L8.01599 10.8181L8.26665 9.49954L5.5708 9.38257L6.66333 10.4401Z" fill="#CC6228" stroke="#CC6228" stroke-width="0.1875" stroke-linecap="round" stroke-linejoin="round"/>
<path d="M5.5708 9.38257L6.70118 11.4841L6.66332 10.4401L5.5708 9.38257Z" fill="#E27525" stroke="#E27525" stroke-width="0.1875" stroke-linecap="round" stroke-linejoin="round"/>
<path d="M11.3409 10.4401L11.2983 11.4841L12.4287 9.38257L11.3409 10.4401Z" fill="#E27525" stroke="#E27525" stroke-width="0.1875" stroke-linecap="round" stroke-linejoin="round"/>
<path d="M8.26681 9.49976L8.01611 10.8183L8.33299 12.3753L8.40395 10.3233L8.26681 9.49976Z" fill="#E27525" stroke="#E27525" stroke-width="0.1875" stroke-linecap="round" stroke-linejoin="round"/>
<path d="M9.73305 9.49976L9.60059 10.3188L9.66685 12.3753L9.98367 10.8183L9.73305 9.49976Z" fill="#E27525" stroke="#E27525" stroke-width="0.1875" stroke-linecap="round" stroke-linejoin="round"/>
<path d="M9.98382 10.8182L9.66699 12.3752L9.89396 12.5282L11.2987 11.4842L11.3412 10.4402L9.98382 10.8182Z" fill="#F5841F" stroke="#F5841F" stroke-width="0.1875" stroke-linecap="round" stroke-linejoin="round"/>
<path d="M6.66357 10.4402L6.70144 11.4842L8.10609 12.5282L8.33312 12.3752L8.01624 10.8182L6.66357 10.4402Z" fill="#F5841F" stroke="#F5841F" stroke-width="0.1875" stroke-linecap="round" stroke-linejoin="round"/>
<path d="M10.0119 13.9635L10.026 13.536L9.90306 13.437H8.09638L7.97812 13.536L7.98759 13.9635L6.47412 13.2795L7.00383 13.6935L8.07745 14.4H9.91724L10.9956 13.6935L11.5206 13.2795L10.0119 13.9635Z" fill="#C0AC9D" stroke="#C0AC9D" stroke-width="0.1875" stroke-linecap="round" stroke-linejoin="round"/>
<path d="M9.89401 12.5282L9.66698 12.3752H8.33322L8.10622 12.5282L7.97852 13.5363L8.09676 13.4373H9.90342L10.0264 13.5363L9.89401 12.5282Z" fill="#161616" stroke="#161616" stroke-width="0.1875" stroke-linecap="round" stroke-linejoin="round"/>
<path d="M14.7182 7.19559L15.1202 5.3326L14.5148 3.6001L9.89404 6.86262L11.6723 8.2936L14.1838 8.99112L14.7371 8.37462L14.4959 8.2081L14.879 7.87512L14.5857 7.65911L14.9689 7.3801L14.7182 7.19559Z" fill="#763E1A" stroke="#763E1A" stroke-width="0.1875" stroke-linecap="round" stroke-linejoin="round"/>
<path d="M2.87988 5.3326L3.28663 7.19559L3.0265 7.3801L3.41432 7.65911L3.12109 7.87512L3.50418 8.2081L3.26298 8.37462L3.81634 8.99112L6.32775 8.2936L8.10604 6.86262L3.48527 3.6001L2.87988 5.3326Z" fill="#763E1A" stroke="#763E1A" stroke-width="0.1875" stroke-linecap="round" stroke-linejoin="round"/>
<path d="M14.1834 8.99121L11.672 8.2937L12.4287 9.3827L11.2983 11.4842L12.7929 11.4662H15.0252L14.1834 8.99121Z" fill="#F5841F" stroke="#F5841F" stroke-width="0.1875" stroke-linecap="round" stroke-linejoin="round"/>
<path d="M6.32801 8.2937L3.81662 8.99121L2.97949 11.4662H5.20712L6.70164 11.4842L5.57129 9.3827L6.32801 8.2937Z" fill="#F5841F" stroke="#F5841F" stroke-width="0.1875" stroke-linecap="round" stroke-linejoin="round"/>
<path d="M9.73277 9.49962L9.8936 6.86257L10.6219 4.98608H7.37744L8.10578 6.86257L8.26658 9.49962L8.32807 10.3276L8.33281 12.3751H9.66657L9.67128 10.3276L9.73277 9.49962Z" fill="#F5841F" stroke="#F5841F" stroke-width="0.1875" stroke-linecap="round" stroke-linejoin="round"/>
</svg>
